<?xml version="1.0" standalone="no"?>
<!DOCTYPE svg PUBLIC "-//W3C//DTD SVG 20010904//EN"
 "http://www.w3.org/TR/2001/REC-SVG-20010904/DTD/svg10.dtd">
<svg version="1.0" xmlns="http://www.w3.org/2000/svg"
 width="270.000000pt" height="270.000000pt" viewBox="0 0 270.000000 270.000000"
 preserveAspectRatio="xMidYMid meet">
<metadata>
Created by potrace 1.11, written by Peter Selinger 2001-2013
</metadata>
<g transform="translate(0.000000,270.000000) scale(0.100000,-0.100000)"
fill="#000000" stroke="none">
<path d="M535 2610 l-90 -90 159 -159 158 -159 -43 -18 c-165 -70 -262 -136
-384 -258 -167 -167 -257 -329 -310 -556 -23 -97 -28 -317 -10 -422 83 -473
426 -827 900 -927 137 -29 364 -23 500 13 320 86 591 310 735 608 20 42 40 87
43 100 6 21 21 8 167 -137 l160 -160 90 90 90 90 0 286 0 286 -182 181 -182
182 -53 -55 c-53 -55 -73 -67 -73 -42 0 7 -10 39 -23 71 l-23 59 213 213 c117
117 213 217 213 222 0 5 -20 28 -45 51 -25 23 -45 45 -45 49 0 4 45 52 100
107 l100 100 0 105 0 105 -78 78 -77 77 -105 0 -105 0 -100 -100 c-54 -55
-102 -100 -105 -100 -3 0 -26 20 -50 45 -24 25 -48 45 -53 45 -4 0 -104 -96
-222 -214 l-214 -214 -58 24 c-32 13 -64 24 -70 24 -23 0 -13 18 37 67 27 26
50 53 50 59 0 6 -80 90 -177 187 l-177 177 -286 0 -285 0 -90 -90z"/>
</g>
</svg>
